<svg data-v-0dd9719b="" version="1.0" xmlns="http://www.w3.org/2000/svg" xmlns:xlink="http://www.w3.org/1999/xlink" width="100%" height="100%" viewBox="0 0 340.000000 250.000000" preserveAspectRatio="xMidYMid meet" color-interpolation-filters="sRGB" style="margin: auto;"> <rect data-v-0dd9719b="" x="0" y="0" width="100%" height="100%" fill="#fff" fill-opacity="1" class="background"></rect> <rect data-v-0dd9719b="" x="0" y="0" width="100%" height="100%" fill="url(#watermark)" fill-opacity="1" class="watermarklayer"></rect> <g data-v-0dd9719b="" fill="#333" class="icon-text-wrapper icon-svg-group iconsvg" transform="translate(48.045005798339844,94.99489784240723)"><g class="iconsvg-imagesvg" transform="translate(0,0)"><g><rect fill="#333" fill-opacity="0" stroke-width="2" x="0" y="0" width="60" height="60.01020173429483" class="image-rect"></rect> <svg x="0" y="0" width="60" height="60.01020173429483" filtersec="colorsb566223082" class="image-svg-svg primary" style="overflow: visible;"><svg xmlns="http://www.w3.org/2000/svg" viewBox="-0.030000001192092896 0 360.9700012207031 361.03192138671875"><path d="M329.51 283.42l-2.66 3.76c2.68-3.69 5.29-7.59 7.75-11.59l-5.09 7.83M309.97 307.17c-13.4 12.69-13.93 13.19-23 19.87l-8.93 6.07c3-2.19 14.44-11.88 28.33-24.11 7-6.22 10.52-9.36 11.29-10.19l-7.68 8.36" fill="#009eb8"></path><path d="M278.41 332.82c-.58.4-1.37.91-2 1.29-4.55 2.6-10.57 6.14-15.24 8.51-7.26 3.27-17.08 7.33-24.55 10.06-4.23 1.35-4.66 1.05-5 .84.06-1.75 12.59-9.07 31.17-17.18 10.49-4.45 16.28-6.37 17.7-5.85-.11.64-.15.92-2.14 2.33" fill="#009eb8"></path><path d="M231.68 352.94c-9.51 6.32-51.53 11.16-50 5.76.63-2.18 10.77-6.54 30.51-9 18.65-1.94 21.69.54 20.69 2.12a4.41 4.41 0 0 1-1.24 1.11M359.37 208.03c-3.5 18.14-3.64 18.85-7.08 29.49 0-.15 0-.15 6.31-31.75 2-10.16 2.34-11.38 2.34-11.39l-1.57 13.65M349.73 243.7c-3.16 12.07-17.67 38.66-19.41 35.56-1-1.76 3.73-15.56 12-30.28 6.62-11.26 7.68-9.57 7.84-8.78a8.62 8.62 0 0 1-.47 3.5M324.86 284.06c-4.15 12.91-28.15 35.35-30.58 28.6-1.36-3.79 6-16.14 18-27 10.8-9.21 13.3-6.72 13.08-3.79a11 11 0 0 1-.48 2.19M286.39 315.96c-5.09 13-36.29 28-39.74 19.07-1.66-4.29 6.14-14.87 22.59-22.34 14.23-5.79 19.46-2.63 17.15 3.27" fill="#009eb8"></path><path d="M237.4 335.57c-5.62 12.39-39.1 17.89-42.64 7-1.73-5.3 6.74-14.21 24.45-16.68 16.24-1.44 20.41 4.79 18.19 9.67M334.84 86.34c9 16 9.75 17.34 15.2 31.08.08.23.19.53.25.76-.94-.57-7.57-13.45-11.58-21.86-3.61-7.66-4.51-10.14-4.63-10.88a1.94 1.94 0 0 1 .76.9M321.48 78.99c6.77 2.79 16.24 20.1 11.78 21.53-2.48.81-9.71-4.78-13.93-13.17-3.28-7.39-.86-9.6 2.15-8.36M295.23 79.06c7.16.2 12.76 8.2 9.34 11.2-2.89 2.57-12.09.08-14.84-4.95-1.66-4.13 2.2-6.32 5.5-6.26M257.96 86.57c5.46-1.08 8.44 1 7.07 2.78-1.85 2.43-12.09 3.3-13.52 1.15-.46-1.56 3.45-3.34 6.45-3.93M211.46 101.26a23.38 23.38 0 0 1 4.66-1.37v.06a8.16 8.16 0 0 1-2.18.86c-2.37.77-4.78 1.41-7.16 2.16 1.55-.56 3.1-1.15 4.65-1.71" fill="#009eb8"></path><path d="M211.92 102.61a26.27 26.27 0 0 1 5 0v.06a9.51 9.51 0 0 1-2.42.2c-2.58.07-5.15 0-7.72.08 1.7-.1 3.4-.23 5.11-.33" fill="#009eb8"></path><path d="M211.92 103.99a27 27 0 0 1 4.94 1.33v.06a10.83 10.83 0 0 1-2.45-.47c-2.54-.61-5.05-1.35-7.59-2 1.7.36 3.41.69 5.11 1.05M211.48 105.26a27.09 27.09 0 0 1 4.44 2.56v.05a10 10 0 0 1-2.26-1.09c-2.29-1.24-4.53-2.6-6.82-3.86 1.55.79 3.12 1.55 4.67 2.34M210.64 106.38c2.62 2.39 3.54 3.46 3.53 3.64a8.29 8.29 0 0 1-1.92-1.62c-1.85-1.78-3.6-3.66-5.44-5.46 1.27 1.16 2.56 2.28 3.83 3.44M209.41 107.26a22.89 22.89 0 0 1 2.27 4.35h-.06a10.72 10.72 0 0 1-1.31-2c-1.21-2.18-2.31-4.42-3.5-6.61.86 1.43 1.74 2.84 2.6 4.27" fill="#009eb8"></path><path d="M207.94 107.64a21.33 21.33 0 0 1 .82 4.7h-.06c-.15-.25-.15-.25-1.89-9.41.37 1.57.77 3.13 1.13 4.7M263.45 102.26c5.28.56 8.22 2.95 6.55 4.33-2.35 1.95-13.77-.16-14.54-2.69.08-1.52 4.71-2 8-1.64M263.72 117.95c5.27 2.05 7.52 5.11 5.36 5.9-3 1.11-14.1-4.15-14.07-6.7.58-1.38 5.46-.47 8.71.8M259.04 132.66c4.5 3.25 6 6.6 4 7.06-3.13.74-13.55-7.72-12.68-10.28 1-1.14 5.72 1.1 8.65 3.22M249.67 145.34c3.62 4.38 4.1 8 1.95 7.91-3.45-.16-11.5-11.17-9.78-13.38 1.43-.85 5.54 2.7 7.83 5.47M235.91 154.98c2.33 5.23 1.66 8.85-.52 8.14-3.48-1.13-8.24-13.93-5.79-15.57 1.75-.4 4.84 4.14 6.31 7.43M219.35 160.18c.83 5.81-.78 8.91-2.66 7.61-3-2.08-4.1-15.63-1.32-16.48 1.76.12 3.46 5.32 4 8.87M305.71 107.14c7.38 2.36 10.69 10.62 6.43 12.62-4 1.89-13.76-3.27-14.89-9-.22-4.14 4.86-4.76 8.46-3.61M306.78 135.39c6.93 4.35 8.2 12.51 3.49 13.58-4.9 1.11-14.57-7-13.88-13 1.14-3.91 6.76-2.85 10.39-.58M298.93 161.97c5.94 6 5.3 13.74.4 14-6 .34-14.18-11.34-11.71-16.67 2.37-3.36 8.09-.62 11.31 2.65M282.65 185.03c4.62 7.61 1.71 14.9-3.6 13.73-6.5-1.43-11.9-15.18-7.7-19.61 3.5-2.55 8.81 1.78 11.3 5.88M258.42 202.73c2.7 8.62-2.47 15.07-7.72 12.35-6.62-3.44-8.42-18.19-2.6-21.33 4.45-1.46 8.85 4.28 10.32 9M228.85 212.66c.57 9.35-5.87 13.9-10.35 9.69-5.62-5.29-3.84-20.12 2.56-21.46 4.61-.1 7.48 6.77 7.79 11.77M336.5 116.87c7.05 5 11.13 22.26 5.39 22.76-3.48.31-10.63-7.74-12.09-16.85-.69-7.46 3.45-8.23 6.7-5.91M338.74 155.15c6.62 7.1 6.19 23.38-.61 22.92-4.94-.33-10.91-11.2-9.52-20.15 1.73-7 7-6.13 10.13-2.77M328.88 191.33c5.4 8.63 1.14 23.43-6.34 22-6-1.15-10.52-14.34-6.15-22.88 4.13-6.39 9.89-3.25 12.49.88M307.57 222.91c3.93 10.19-4.66 23.41-12.77 19.65-6.71-3.12-8.38-17.31-1.06-24.5 6.26-4.92 12 0 13.83 4.85M275.46 247.4c1.93 11.54-10.68 22-18.72 15.57-6.52-5.23-5-19.78 4.6-24.55 8.12-3 13.23 3.6 14.12 9M235.69 261.61c-.39 11.38-13.57 18.11-20.73 10.59-6.45-6.76-2.4-21.91 8.71-23.84 8.53-.46 12.22 7.63 12 13.25M353.73 131.16c4.1 8.43 8 33.87 5 32.79-1.66-.6-5.64-12-7.41-24.8-1.13-9.73.24-10.73 1.23-9.79a7.36 7.36 0 0 1 1.14 1.8M357.31 176.26c3.74 10.19.06 35-4.74 32-2.63-1.64-5-13.83-2.65-26.67 2.26-10.27 5.29-9.14 6.58-7.11a9.48 9.48 0 0 1 .81 1.74M346.57 219.04c2.73 11.33-7.15 33-13.56 29.67-4.32-2.23-4.08-16.37 2.09-27.78 5.91-9.61 10.26-6.89 11.47-1.89M322.38 256.63c1.37 12.44-15 30.7-22.48 25.06-5-3.82-2.07-18.05 7.86-27.39 9.09-7.48 14-3.14 14.62 2.33M285.42 286.06c-.44 13.52-22.48 26.69-30.23 18.07-4.7-5.24-.56-18.62 13.42-25.23 11.96-4.64 16.96 1.36 16.81 7.16M238.97 303.67c-2.26 12.83-24.63 19.67-32.36 9.9-5.85-7.41 1.68-20.37 16.48-22.65 12.66-.94 16.9 6.89 15.88 12.75M181.46 358.69c-7.51 5.46-52.09-2-49.7-8.36.82-2.15 9.22-4.54 28.32-1.79 19.55 3.31 24.31 8 21.38 10.15" fill="#009eb8"></path><path d="M131.42 350.83c-5.26 5.26-46.85-13.67-46.35-21.09.16-2.44 7-3.49 24.77 4.06 18.1 8.25 23.58 15 21.58 17" fill="#009eb8"></path><path d="M84.93 330.26c-2.68 5.19-35.81-21.8-39.36-32-1-2.78.88-3.27 5.07-1.35 5.42 2.48 11.7 7.47 14.38 9.6C80.4 319.26 86 328.26 84.93 330.26" fill="#009eb8"></path><path d="M45.36 298.02c-.15 2.05-3.33-1.4-5.2-3.64-.48-.57-1.11-1.34-1.57-1.93-2.86-3.95-6.77-9.16-9.46-13.24-3.08-5.16-7.19-12.07-10-17.4-3.12-6.25-4-9.58-2.29-8.92 1 .4 4 2.84 12.15 14.6 11.45 17 16.53 28.25 16.36 30.53" fill="#009eb8"></path><path d="M16.38 255.54c.06.24.13.58.18.83h-.05c-1.64-4-4-9.19-5.47-13.21-5.63-17.32-5.85-18-8-28.77l-1.37-8.3c.37.6.78 1.27 4.86 14.83 4.67 15.72 9 31.25 9.8 34.63M0 184.26c.11-5.43.2-12.67.59-18.08-.21 2.63-.28 4.55-.37 7a212.38 212.38 0 0 0 1 29.29C.78 197.02 0 189.76-.03 184.29M185.24 340.26c-6 11.68-39.37 8.24-42.55-4.39-1.77-7 8.53-13.28 25-11.15 16.1 3 20 10.87 17.6 15.54M133.57 330.97c-5.92 10.55-35 .44-39.34-13.68-2.68-8.67 7.75-13.65 23.74-7.11 14.87 7 18.07 16.39 15.6 20.79M85.89 308.61c-5.58 9.24-29-6.06-33.38-21.82-2.85-10.22 4.75-13.66 15.95-7.23a45.14 45.14 0 0 1 5.18 3.59c12.57 10.74 14.73 21.36 12.25 25.46M45.67 274.17c-4.92 7.75-20.45-9.17-24.44-26.62-2.49-10.91 1.07-16.38 7.93-12.2 4 2.45 7.44 7.23 8.9 9.28 9.74 14.9 9.84 26 7.61 29.54M16.85 229.52c-3 4.8-8.17-2.11-11.08-14.79-3.72-16.25-1.57-31.2 4-27.59 3.17 2.06 5.42 9.12 6.15 11.44 4.33 15.45 3.17 27.39 1 30.94" fill="#009eb8"></path><path d="M3.92 181.64c-.84 1.47-2 2.61-2.8-.37-2.73-10.22 3-45 6.91-41.85 1.17 1 1.71 5 1.58 11.91-.61 14.92-3.75 26.9-5.69 30.31M6.66 134.39a13.41 13.41 0 0 1-.8 1.46 1.24 1.24 0 0 1 0-.54l3.57-12c2.08-5.48 4.83-12.81 7.2-18.17l4.58-9.26a4.53 4.53 0 0 1 .6-1c.12.5.27 1.12-3.37 11-5.36 14.35-10.49 25.86-11.75 28.44M189.81 307.26c-4 12.41-26.9 13.29-33.1 1.28-4.74-9.19 4.53-20.4 19.45-18.68 12.49 2.49 15.5 11.67 13.65 17.4M193.85 263.92c-2.62 11.15-16.77 14.3-22.26 4.95-5-8.48 2-22.46 13.25-21.38 8.35 1.83 10.31 10.89 9 16.43M197.9 213.82c-1.66 9.24-9 12-12.31 6.69-4.22-6.66 1-20.66 7.61-20.24 4.65 1.17 5.55 8.78 4.7 13.55M202.09 160.53c-.77 5.77-3.16 8.32-4.62 6.59-2.48-2.95.16-16.06 3.24-16.14 1.64.57 1.86 6 1.38 9.55M206.43 107.65c-.29 3.32-.52 4.35-.67 4.63h-.06c-.09-.37-.09-.37 1.11-9.33-.14 1.57-.25 3.14-.38 4.71" fill="#009eb8"></path><path d="M204.96 107.26a22.19 22.19 0 0 1-2.09 4.18h-.06c0-.48 0-.48 4-8.48-.64 1.44-1.23 2.88-1.85 4.32M203.63 106.5c-2.49 2.79-3.22 3.37-3.39 3.38 0-.32 0-.32 6.57-6.94-1.08 1.17-2.12 2.38-3.18 3.56" fill="#009eb8"></path><path d="M202.57 105.4c-2.67 1.55-4.15 2.3-4.39 2.23.27-.47.27-.47 8.65-4.69-1.43.8-2.84 1.64-4.26 2.46M201.85 104.06a31.81 31.81 0 0 1-4.95.9v-.06c.64-.38 1-.44 9.93-2l-5 1.12" fill="#009eb8"></path><path d="M201.62 102.67a36 36 0 0 1-5.05-.41v-.06c.78-.2 1.86-.08 10.28.79l-5.19-.27M201.84 101.32a33.69 33.69 0 0 1-4.81-1.76v-.05c.83 0 2 .48 9.76 3.43-1-.33-1-.33-5-1.62M185.3 156.33c-2.32 5.32-5.33 7.15-6.28 5.13-1.61-3.47 4.53-15.35 7.57-14.62 1.56 1.05-.07 6.7-1.29 9.49M170.11 147.92c-3.76 4.55-7.11 5.49-7.49 3.26-.64-3.78 8.6-13.55 11.36-12 1.21 1.42-1.93 6.41-3.87 8.77M157.66 135.61c-4.86 3.33-8.36 3.29-8.11 1 .41-3.88 12-10.74 14.31-8.43.77 1.71-3.65 5.67-6.2 7.41M149.42 120.41c-5.56 1.88-8.79 1-7.86-1 1.61-3.45 14.62-6.95 16-4.3.17 1.74-5.21 4.31-8.14 5.3M146.51 104.59c-5.84.41-8.52-1.13-7-2.78 2.56-2.82 15.8-2.93 16.28-.14-.37 1.63-6.22 2.7-9.26 2.92M148.68 89.26c-5.55-1-7.56-3.1-5.65-4.28 3.28-2 15.67 1.07 15.24 3.81-.85 1.42-6.67 1-9.59.47M167.63 206.8c-3.78 8.55-11.48 9.34-13.46 3.38-2.53-7.59 5.9-19.89 12.19-17.79 4.18 2.33 3.23 10 1.27 14.41M140.11 192.17c-5.46 7.09-12.5 6.35-13.58.65-1.51-8 10.06-18.93 15.87-15 3.42 3.33.65 10.55-2.29 14.38M117.39 170.5c-6.9 5.47-13.35 2.79-13-3.13.58-8.73 14-15.33 18.33-10.9.13.14.29.35.41.5 2.38 4.22-2.05 10.57-5.78 13.53M102.01 143.4c-7.78 3.56-12.78-.35-10.7-5.75 3.06-7.95 17-11.16 19.66-6.12.08.16.15.39.22.56.9 4.45-5 9.38-9.18 11.31M96.16 115.01c-7.68 1.54-11-2.54-8.29-7 4.44-7.31 19-7.5 19.89-2.07a5.44 5.44 0 0 1 0 .57c-.51 4.28-7.24 7.58-11.63 8.46M99.49 87.34c-7.26-.24-8.9-4.76-5.14-8.29 5.89-5.55 18.31-3.23 18.39 1.92a4.3 4.3 0 0 1-.19 1.06c-1.81 3.86-8.86 5.46-13.06 5.31M152.76 255.11c-4.72 10.37-18.93 9.92-22.35-.72-3.13-9.7 6.37-21.83 17-17.87 7.61 3.91 7.67 13.41 5.31 18.59M115.2 235.96c-6.76 9.37-18.84 4.86-20.72-5.08-2.22-11.8 10.65-20.44 18.66-15.38.29.19.65.47.93.67 6.33 5.79 4.41 15.23 1.13 19.79M83.96 207.26c-8.29 7.63-18.38-.11-17.89-10.6.58-12.4 14.29-17.61 20.5-10.4.23.26.5.64.71.92 4.57 7.53.81 16.27-3.32 20.06M62.38 170.86c-8.65 5.21-15.19-3-12.93-12.31 2.89-11.86 16-15.44 20.32-8a13 13 0 0 1 .82 1.92c1.92 8-3.77 15.67-8.21 18.36M53.65 132.47c-8.42 3.1-11.7-4.7-8-12.78 5-11 17.29-13.05 19.83-5.6a9.18 9.18 0 0 1 .39 2.83c-.63 7.77-7.66 13.87-12.21 15.55M57.37 94.9c-7.52 1.23-8.11-5.78-3.32-12.39 7-9.7 18.31-10.44 19-3.29a8.3 8.3 0 0 1-.55 3.54c-3 7.08-10.79 11.43-15.12 12.14M141.32 297.72c-5.63 11.6-27.54 6.78-31.7-7-3.19-10.55 7.31-19.65 21.35-14.15 11.47 5.63 13 15.73 10.35 21.11M96.77 275.95c-6.86 10.22-24.81 1.69-27.84-13.23-2.55-12.55 9.24-19.35 20.34-11.72.42.29.95.72 1.36 1 9.62 8.47 9.39 19.09 6.14 23.93M59.45 242.86c-7.44 8.26-21.1-3.28-22.15-18.71-.88-13 8.89-19 17.73-10.94a24.76 24.76 0 0 1 3.22 3.76c7 11 4.91 21.78 1.2 25.89M33.16 200.45c-7 5.94-14.84-4.36-14-18.38.81-13.35 9.32-20.51 15.69-13.21a18 18 0 0 1 3.21 6.21c3.14 12-1 22-4.92 25.38M21.93 155.33c-5.75 3.84-9.25-3.12-7.22-14.31 2.5-13.79 11.41-23.36 15.88-17.05 1.77 2.5 1.77 6.28 1.77 8.1-.68 11.57-6.63 20.72-10.43 23.26M25.38 110.99c-4 2.12-5.28-1.16-3.09-8 4.24-13.18 15.93-26.33 19-21.31 1.43 2.38-.31 7.42-.88 9.08-4.18 10.6-11.42 18.33-15 20.21M31.93 78.13c3.78-5.05 8.85-11.77 12.91-16.59-1.52 1.76-1.87 2.19-3.36 4a212.89 212.89 0 0 0-14 19.38l4.44-6.79" fill="#009eb8"></path><path d="M42.75 70.36c-1.35.57-2.78.77-1.91-1.54C43.77 61 63.95 42 65.95 45.19c.4.62.32 2.6-4.58 8.81-7.42 8.92-15.5 15-18.62 16.36M72.88 60.64c-6.22-.25-4.5-6.08 1.18-11.14 8.62-7.65 18.33-7.58 17.92-1.76a8.89 8.89 0 0 1-2.12 4.59c-5.16 5.93-13.18 8.46-17 8.31M111.5 62.26c-6.31-1.8-6.11-6.37-1.53-8.84 7.2-3.88 17.38 1 15.6 5.84a5.08 5.08 0 0 1-.55.95c-3 3.19-9.84 3.11-13.52 2.05M155.67 75.38c-4.82-2.28-6-4.72-3.8-5.37 4-1.19 13.76 4.93 13.07 7.07a.85.85 0 0 1-.1.19c-1.3 1.13-6.61-.67-9.17-1.89M202.48 100.11a30.84 30.84 0 0 1-4.12-2.91c.78.23 1.5.75 8.41 5.78-.81-.54-.81-.54-4.33-2.83M203.51 99.13c-.76-.88-3.08-3.55-3-3.86.42.05.86.62 6.32 7.67-.49-.58-.49-.58-3.3-3.81" fill="#009eb8"></path><path d="M204.89 98.48a24.44 24.44 0 0 1-1.64-4.39h.06c.44.48.44.48 3.5 8.86-.62-1.49-1.28-3-1.92-4.46M206.39 98.26a23.72 23.72 0 0 1-.16-4.53h.06c.23.5.23.5.52 9.21-.12-1.56-.28-3.12-.42-4.68M207.9 98.45a18.37 18.37 0 0 1 1.31-4.28h.06c0 .43 0 .43-2.46 8.75.38-1.49.72-3 1.09-4.49M209.31 99.02c2.09-3.26 2.59-3.64 2.71-3.65a7.29 7.29 0 0 1-1.1 1.92c-1.32 1.92-2.76 3.76-4.11 5.65.85-1.3 1.66-2.62 2.5-3.92M210.57 99.95c3.19-2.54 3.76-2.69 3.85-2.67s-.57.65-1.7 1.5c-1.92 1.44-3.93 2.75-5.87 4.16 1.25-1 2.47-2 3.72-3M167.21 64.05c-3.69-3.3-3.83-5.87-1.5-6 4.23-.15 11.17 8 9.68 9.81 0 .05-.12.1-.17.15-1.68.74-6-2.24-8-4M182.7 56.39c-2.21-4-1.37-6.33.85-5.78 4 1 7.46 10.18 5.41 11.45a.85.85 0 0 1-.22.09c-1.85.23-4.89-3.7-6-5.76M199.74 53.58c-.63-4.33 1.28-6.29 3.22-4.8 3.34 2.56 2.64 11.07.58 11.61a2 2 0 0 1-.24 0c-1.83-.29-3.24-4.66-3.56-6.84M216.92 55.48c1.13-4.53 4-5.3 5.14-3.2 1.6 3-1.57 10.75-4.23 10.35-1.7-.74-1.43-5.09-.91-7.15M233.08 61.77c2.86-3.83 6.07-3.72 6.38-1.48.45 3.17-5.63 9.33-8.12 8.24-1.45-1.16.45-5 1.74-6.76M247.08 72.11c4.28-2.63 7.6-1.54 7.1.58-.72 3.05-9.18 6.9-11.32 5.15-1-1.46 2.15-4.46 4.22-5.73M131.7 41.56c-4.85-3.05-2.68-7.21 2.5-8.47 8.3-2 14.44 4.49 11.8 8.4a4.74 4.74 0 0 1-1.24 1.19c-4.08 2.27-10.21.67-13.06-1.12M159.18 27.26c-3.14-4 1.23-7.26 6.78-6.71 7.37.72 9.7 6.94 6.53 9.82a5.11 5.11 0 0 1-2 1.07c-4.87 1-9.75-2.21-11.27-4.18M189.68 21.69c-1.15-4.69 5.63-6.21 10.52-3.47 5.29 3 3.73 8.53-.28 9.7a6.59 6.59 0 0 1-1.79.23 9.77 9.77 0 0 1-8.45-6.46M220.57 24.57c1.25-4.75 10-3.48 12.65.75 2.47 4-2.32 8.06-6.87 7.19-.18 0-.43-.1-.61-.15-4.27-1.45-5.77-5.53-5.17-7.79M249.75 35.36c3.79-3.93 12.78.42 12.77 4.84 0 3.57-6.22 6-11.12 3.37-3.75-2.51-3.36-6.45-1.65-8.21M275.19 53.48c6-2.22 13.68 4.58 11.61 8.48-1.65 3.11-9.47 3.22-13.51-.7-2.92-3.47-.73-6.8 1.9-7.78M99.51 32.19c-4.27-1.21-1.14-5.23 4.35-8.41 9-5.25 19.12-5.94 18.3-1.27-.44 2.49-3.72 4.7-4.8 5.43-7.16 4.31-14.89 5.09-17.85 4.25M136.2 12.26c-2.81-1.88 2.82-4.7 9.85-6.15 9.21-1.9 16.27-.69 14.24 2.44-.92 1.43-3.32 2.71-7.13 3.81-8.68 2.14-15.33 1-17-.1M177.34 3.87c-1.63-3 14.13-3.18 21.26-1 3.28 1 3.94 2.35 1.73 3.47-1.76.89-4.66 1.33-8.62 1.31-8.74-.3-13.75-2.68-14.37-3.83M219.16 7.05c.93-2.64 21.83 3.16 23.06 6.4.58 1.52-3.94 2.35-12.06.12-7.72-2.35-11.41-5.35-11-6.52M258.89 20.99c3.39-1.46 22.31 9.65 20.86 12.26-.67 1.2-6.52.2-13.82-4.06-6.86-4.28-8.52-7.57-7-8.2M293.72 44.89c5.46.4 20.23 15.35 17.37 17.58-1.41 1.1-8.35-2.11-14.66-8.64-5.51-6.11-5.11-9.12-2.71-8.94M73.26 36.37c-.69.25-.85.23-1 .21.15-.4.23-.61 2.59-2.33C90.14 24.1 90.74 23.7 100.24 18.93c2.3-1.11 3.07-1.41 3.58-1.38 0 .31-.15 1.14-9.22 7-10.69 6.75-19.18 11-21.34 11.85M116.19 11.93l11-3.82c6.71-1.81 15.71-4.06 22.53-5.44-1.76.33-5 1.13-11.84 3-15.24 4.08-20.12 5.7-21.68 6.3M179.83 0l11.64.33c-2.57-.15-4.17-.2-7-.27-4.06-.06-7.65-.06-11.94.12l7.31-.18M274.9 26.47l5.46 3.47c-2.54-1.68-4-2.6-6.2-3.91-1.73-1-2-1.2-3.18-1.88l3.92 2.32M315.1 59.86c2.8 3.36 6.64 7.76 9.3 11.23-2.64-3.44-7.14-8.58-13.37-15.28-3.84-4.09-6.09-6.39-8-8.19 3.67 3.63 8.7 8.35 12.1 12.24" fill="#009eb8"></path></svg></svg> <!----></g></g> <g transform="translate(67,9.815101623535156)"><g data-gra="path-name" fill-rule="" class="tp-name iconsvg-namesvg"><g transform="scale(1)"><g><path d="M17.62-5.65L27.32-5.65 27.32 0 16.25 0Q13.11 0 11.45-0.33L11.45-0.33Q5.61-1.47 3.14-6.84L3.14-6.84Q1.52-10.45 1.52-15.77L1.52-15.77Q1.52-22.14 3.99-26.13L3.99-26.13Q5.8-29.03 8.81-30.36 11.83-31.69 16.58-31.69L16.58-31.69 27.32-31.69 27.32-26.03 17.34-26.03Q12.83-26.03 10.74-23.61L10.74-23.61Q8.98-21.62 8.98-16.39L8.98-16.39Q8.98-9.36 11.69-7.17L11.69-7.17Q13.59-5.65 17.62-5.65L17.62-5.65ZM42.57-23.47L42.57-23.47Q48.98-23.47 52.02-19.76L52.02-19.76Q54.82-16.39 54.82-11.26L54.82-11.26Q54.82-5.84 51.31-2.61L51.31-2.61Q48.08 0.33 42.47 0.33L42.47 0.33Q36.67 0.33 33.4-2.99L33.4-2.99Q30.36-5.99 30.36-11.73L30.36-11.73Q30.36-16.58 33.25-19.81L33.25-19.81Q36.48-23.42 42.57-23.47ZM42.61-18.62L42.61-18.62Q36.86-18.62 36.86-11.5L36.86-11.5Q36.86-8.6 37.81-7.08L37.81-7.08Q39.38-4.51 42.66-4.51L42.66-4.51Q48.31-4.51 48.31-11.59L48.31-11.59Q48.31-18.53 42.61-18.62ZM59.52 0L59.52-23.14 65.89-23.14 65.89 0 59.52 0ZM65.89-25.51L59.52-25.51 59.52-31.69 65.89-31.69 65.89-25.51ZM72.16 0L72.16-23.14 84.42-23.14Q87.17-23.14 88.62-22.73 90.07-22.33 91.26-21.28L91.26-21.28Q93.68-19.05 93.68-14.25L93.68-14.25 93.68 0 87.32 0 87.32-14.96Q87.32-16.67 86.56-17.43 85.8-18.19 84.04-18.19L84.04-18.19 78.53-18.19 78.53 0 72.16 0ZM106.08-18.72L124.99-18.72 124.99-13.06 106.08-13.06 106.08 0 99.38 0 99.38-16.53Q99.43-23.66 100.71-25.89L100.71-25.89Q102.33-29.03 105.39-30.36 108.46-31.69 114.01-31.69L114.01-31.69 124.99-31.69 124.99-26.03 114.87-26.03Q110.17-25.94 108.84-25.27L108.84-25.27Q106.18-24.18 106.08-20.43L106.08-20.43 106.08-18.72ZM136.2-31.69L136.2 0 129.83 0 129.83-31.69 136.2-31.69ZM142.47 0L142.47-23.14 148.84-23.14 148.84 0 142.47 0ZM148.84-25.51L142.47-25.51 142.47-31.69 148.84-31.69 148.84-25.51ZM155.11 8.69L155.11-23.14 166.22-23.14Q169.45-23.14 171.12-22.73 172.78-22.33 174.3-21.14L174.3-21.14Q178.43-17.91 178.43-11.21L178.43-11.21Q178.43-6.13 175.39-2.99L175.39-2.99Q173.87-1.43 171.9-0.71 169.93 0 167.08 0L167.08 0 161.47 0 161.47 8.69 155.11 8.69ZM165.8-18.19L161.47-18.19 161.47-4.94 165.37-4.94Q168.46-4.94 169.88-6.27L169.88-6.27Q171.88-8.03 171.88-11.69L171.88-11.69Q171.88-14.82 170.31-16.51 168.74-18.19 165.8-18.19L165.8-18.19Z" transform="translate(-1.5199999809265137, 31.690000534057617)"></path></g> <!----> <!----> <!----> <!----> <!----> <!----> <!----></g></g> <!----></g></g><defs v-gra="od"></defs></svg>